<svg xmlns="http://www.w3.org/2000/svg" version="1.1" width="500" height="500">
<rect x="0" y="0" width="500" height="500" style="stroke:#000;fill:none" />
<line x1="138" y1="55" x2="124" y2="77" style="stroke:#000" />
<line x1="55" y1="137" x2="55" y2="163" style="stroke:#000" />
<line x1="25" y1="250" x2="37" y2="272" style="stroke:#000" />
<line x1="55" y1="362" x2="77" y2="376" style="stroke:#000" />
<line x1="137" y1="445" x2="163" y2="445" style="stroke:#000" />
<line x1="250" y1="475" x2="272" y2="463" style="stroke:#000" />
<line x1="362" y1="445" x2="376" y2="423" style="stroke:#000" />
<line x1="445" y1="363" x2="445" y2="337" style="stroke:#000" />
<line x1="475" y1="250" x2="463" y2="228" style="stroke:#000" />
<line x1="445" y1="138" x2="423" y2="124" style="stroke:#000" />
<line x1="363" y1="55" x2="337" y2="55" style="stroke:#000" />
<line x1="250" y1="25" x2="228" y2="37" style="stroke:#000" />
<line x1="124" y1="77" x2="137" y2="98" style="stroke:#000" />
<line x1="55" y1="163" x2="76" y2="175" style="stroke:#000" />
<line x1="37" y1="272" x2="62" y2="272" style="stroke:#000" />
<line x1="77" y1="376" x2="98" y2="363" style="stroke:#000" />
<line x1="163" y1="445" x2="175" y2="424" style="stroke:#000" />
<line x1="272" y1="463" x2="272" y2="438" style="stroke:#000" />
<line x1="376" y1="423" x2="363" y2="402" style="stroke:#000" />
<line x1="445" y1="337" x2="424" y2="325" style="stroke:#000" />
<line x1="463" y1="228" x2="438" y2="228" style="stroke:#000" />
<line x1="423" y1="124" x2="402" y2="137" style="stroke:#000" />
<line x1="337" y1="55" x2="325" y2="76" style="stroke:#000" />
<line x1="228" y1="37" x2="228" y2="62" style="stroke:#000" />
<line x1="137" y1="98" x2="163" y2="98" style="stroke:#000" />
<line x1="76" y1="175" x2="98" y2="162" style="stroke:#000" />
<line x1="62" y1="272" x2="75" y2="250" style="stroke:#000" />
<line x1="98" y1="363" x2="98" y2="337" style="stroke:#000" />
<line x1="175" y1="424" x2="162" y2="402" style="stroke:#000" />
<line x1="272" y1="438" x2="250" y2="425" style="stroke:#000" />
<line x1="363" y1="402" x2="337" y2="402" style="stroke:#000" />
<line x1="424" y1="325" x2="402" y2="338" style="stroke:#000" />
<line x1="438" y1="228" x2="425" y2="250" style="stroke:#000" />
<line x1="402" y1="137" x2="402" y2="163" style="stroke:#000" />
<line x1="325" y1="76" x2="338" y2="98" style="stroke:#000" />
<line x1="228" y1="62" x2="250" y2="75" style="stroke:#000" />
<line x1="163" y1="98" x2="175" y2="76" style="stroke:#000" />
<line x1="98" y1="162" x2="98" y2="137" style="stroke:#000" />
<line x1="75" y1="250" x2="62" y2="228" style="stroke:#000" />
<line x1="98" y1="337" x2="76" y2="325" style="stroke:#000" />
<line x1="162" y1="402" x2="137" y2="402" style="stroke:#000" />
<line x1="250" y1="425" x2="228" y2="438" style="stroke:#000" />
<line x1="337" y1="402" x2="325" y2="424" style="stroke:#000" />
<line x1="402" y1="338" x2="402" y2="363" style="stroke:#000" />
<line x1="425" y1="250" x2="438" y2="272" style="stroke:#000" />
<line x1="402" y1="163" x2="424" y2="175" style="stroke:#000" />
<line x1="338" y1="98" x2="363" y2="98" style="stroke:#000" />
<line x1="250" y1="75" x2="272" y2="62" style="stroke:#000" />
<line x1="175" y1="76" x2="163" y2="55" style="stroke:#000" />
<line x1="98" y1="137" x2="77" y2="124" style="stroke:#000" />
<line x1="62" y1="228" x2="37" y2="228" style="stroke:#000" />
<line x1="76" y1="325" x2="55" y2="337" style="stroke:#000" />
<line x1="137" y1="402" x2="124" y2="423" style="stroke:#000" />
<line x1="228" y1="438" x2="228" y2="463" style="stroke:#000" />
<line x1="325" y1="424" x2="337" y2="445" style="stroke:#000" />
<line x1="402" y1="363" x2="423" y2="376" style="stroke:#000" />
<line x1="438" y1="272" x2="463" y2="272" style="stroke:#000" />
<line x1="424" y1="175" x2="445" y2="163" style="stroke:#000" />
<line x1="363" y1="98" x2="376" y2="77" style="stroke:#000" />
<line x1="272" y1="62" x2="272" y2="37" style="stroke:#000" />
<line x1="163" y1="55" x2="138" y2="55" style="stroke:#000" />
<line x1="77" y1="124" x2="55" y2="137" style="stroke:#000" />
<line x1="37" y1="228" x2="25" y2="250" style="stroke:#000" />
<line x1="55" y1="337" x2="55" y2="362" style="stroke:#000" />
<line x1="124" y1="423" x2="137" y2="445" style="stroke:#000" />
<line x1="228" y1="463" x2="250" y2="475" style="stroke:#000" />
<line x1="337" y1="445" x2="362" y2="445" style="stroke:#000" />
<line x1="423" y1="376" x2="445" y2="363" style="stroke:#000" />
<line x1="463" y1="272" x2="475" y2="250" style="stroke:#000" />
<line x1="445" y1="163" x2="445" y2="138" style="stroke:#000" />
<line x1="376" y1="77" x2="363" y2="55" style="stroke:#000" />
<line x1="272" y1="37" x2="250" y2="25" style="stroke:#000" />
</svg>
